<svg width="29" height="29" viewBox="0 0 29 29" fill="none" xmlns="http://www.w3.org/2000/svg">
<path d="M26.166 14.5003C26.166 10.1006 26.166 7.90066 24.7992 6.53383C23.4323 5.16699 21.2325 5.16699 16.8327 5.16699H13.3327C11.0427 5.16699 9.8977 5.16699 8.91235 5.65967C7.92701 6.15234 7.24001 7.06833 5.86602 8.90033C3.84379 11.5966 2.83268 12.9448 2.83268 14.5003C2.83268 16.0559 3.84379 17.404 5.86602 20.1003C7.24001 21.9323 7.92701 22.8483 8.91235 23.341C9.8977 23.8337 11.0427 23.8337 13.3327 23.8337H16.8327C21.2325 23.8337 23.4323 23.8337 24.7992 22.4668C26.166 21.1 26.166 18.9001 26.166 14.5003Z" stroke="#222222" stroke-width="2"/>
<path d="M12.166 11L19.166 17.9995M12.166 18L19.166 11.0005" stroke="#222222" stroke-width="2" stroke-linecap="round" stroke-linejoin="round"/>
</svg>
