<svg width="32" height="32" viewBox="0 0 32 32" fill="none" xmlns="http://www.w3.org/2000/svg">
<path opacity="0.4" d="M13.9869 2.97309L7.33354 5.46643C5.8002 6.03977 4.54688 7.85309 4.54688 9.49309V19.3998C4.54688 20.9731 5.58689 23.0398 6.85356 23.9864L12.5869 28.2664C14.4669 29.6798 17.5602 29.6798 19.4402 28.2664L25.1735 23.9864C26.4402 23.0398 27.4802 20.9731 27.4802 19.3998V9.49309C27.4802 7.85309 26.2269 6.03977 24.6935 5.46643L18.0402 2.97309C16.9069 2.55975 15.0935 2.55975 13.9869 2.97309Z" fill="#3A5EFB"/>
<path d="M16.3036 8C14.2078 8 12.5039 9.70386 12.5039 11.7997C12.5039 13.8555 14.1118 15.5194 16.2076 15.5914C16.2716 15.5834 16.3356 15.5834 16.3836 15.5914C16.3996 15.5914 16.4076 15.5914 16.4236 15.5914C16.4316 15.5914 16.4316 15.5914 16.4396 15.5914C18.4874 15.5194 20.0953 13.8555 20.1033 11.7997C20.1033 9.70386 18.3994 8 16.3036 8Z" fill="#3A5EFB"/>
<path opacity="0.4" d="M20.3622 17.7282C18.1304 16.2403 14.4907 16.2403 12.2429 17.7282C11.2269 18.4002 10.667 19.3201 10.667 20.304C10.667 21.2879 11.2269 22.1999 12.2349 22.8718C13.3548 23.6237 14.8267 23.9997 16.2985 23.9997C17.7704 23.9997 19.2423 23.6237 20.3622 22.8718C21.3701 22.1919 21.9301 21.2799 21.9301 20.288C21.9221 19.3121 21.3701 18.3922 20.3622 17.7282Z" fill="#3A5EFB"/>
<path d="M15.7949 21.8076C15.6669 21.8076 15.5389 21.7516 15.4429 21.6636L14.435 20.6557C14.243 20.4637 14.243 20.1437 14.435 19.9517C14.627 19.7597 14.947 19.7597 15.1389 19.9517L15.7949 20.6077L17.4588 18.9438C17.6507 18.7518 17.9707 18.7518 18.1627 18.9438C18.3547 19.1358 18.3547 19.4558 18.1627 19.6477L16.1469 21.6636C16.0509 21.7596 15.9229 21.8076 15.7949 21.8076Z" fill="#3A5EFB"/>
</svg>
