<svg width="22" height="18" viewBox="0 0 22 18" fill="none" xmlns="http://www.w3.org/2000/svg">
<path d="M11.0351 17.7998C8.50442 17.7998 5.96842 17.7998 3.44308 17.7998C1.48308 17.7838 0.600417 16.9038 0.600417 14.9304C0.591528 10.9767 0.591528 7.02465 0.600417 3.07443C0.600417 1.1011 1.48575 0.199763 3.43775 0.199763C8.50264 0.187319 13.5693 0.187319 18.6377 0.199763C20.5044 0.199763 21.4004 1.1091 21.4084 2.99976C21.4244 6.99443 21.4244 10.9944 21.4084 14.9998C21.4004 16.8878 20.5044 17.7784 18.6271 17.7998C16.0964 17.8131 13.5658 17.7998 11.0351 17.7998ZM2.28308 9.79976C3.49375 9.79976 4.68308 9.8211 5.87242 9.79976C7.10442 9.77043 7.96042 10.3011 8.58975 11.3544C9.94175 13.6184 12.0564 13.5918 13.4404 11.3011C14.0457 10.3038 14.8724 9.7811 16.0538 9.80243C17.2857 9.8211 18.5177 9.80243 19.7231 9.80243C19.9391 8.6451 19.5497 8.20243 18.4804 8.20243C13.4724 8.22554 8.46619 8.22554 3.46175 8.20243C2.36042 8.19976 2.07775 8.7331 2.28308 9.79976ZM19.7284 3.38376C19.9364 2.27443 19.5791 1.78376 18.4964 1.78376C13.4991 1.81043 8.49197 1.81576 3.47508 1.79976C2.30975 1.79976 2.07242 2.37843 2.28842 3.39976L19.7284 3.38376ZM2.27508 6.54643L19.7311 6.54643C19.9737 5.34643 19.4644 4.9811 18.3684 4.9891C13.4564 5.01576 8.53819 5.01932 3.61375 4.99976C2.52042 4.98376 2.02442 5.37043 2.27508 6.54643Z" fill="#22C55E"/>
</svg>
