<svg width="25" height="24" viewBox="0 0 25 24" fill="none" xmlns="http://www.w3.org/2000/svg">
<path d="M5.74579 5.72403L2.71169 7.8722C2.64588 7.91962 2.59234 7.98206 2.55553 8.05433C2.51871 8.1266 2.49967 8.20662 2.5 8.28773V16.9118C2.49963 17.0566 2.53978 17.1986 2.61591 17.3218C2.69204 17.445 2.80112 17.5444 2.93081 17.6089C3.06049 17.6733 3.20562 17.7002 3.34978 17.6865C3.49394 17.6727 3.63139 17.6189 3.74657 17.5312L11.2652 12.3802V17.3273C11.2668 17.4697 11.3072 17.6089 11.382 17.73C11.4568 17.8512 11.5632 17.9497 11.6897 18.015C11.8162 18.0802 11.9581 18.1098 12.1002 18.1006C12.2422 18.0913 12.3791 18.0435 12.4961 17.9624L22.2805 10.9533C22.3483 10.9056 22.4037 10.8421 22.4419 10.7685C22.4801 10.6948 22.5 10.613 22.5 10.53V6.13955C22.4979 6.04398 22.4698 5.95079 22.4186 5.87002C22.3675 5.78926 22.2953 5.72398 22.2098 5.68123C22.1243 5.63848 22.0287 5.61987 21.9334 5.62741C21.8381 5.63495 21.7467 5.66836 21.669 5.72403L14.5423 10.969V6.13955C14.542 6.04412 14.5152 5.95064 14.4651 5.86945C14.4149 5.78827 14.3433 5.72254 14.2581 5.67953C14.1729 5.63653 14.0774 5.61793 13.9823 5.62578C13.8872 5.63363 13.7961 5.66763 13.7191 5.72403L6.57684 10.6241V6.13955C6.57474 6.04398 6.5466 5.95079 6.49546 5.87002C6.44431 5.78926 6.3721 5.72398 6.28659 5.68123C6.20109 5.63848 6.10554 5.61987 6.01024 5.62741C5.91494 5.63495 5.82351 5.66836 5.74579 5.72403V5.72403Z" stroke="#717171" stroke-width="1.5"/>
</svg>
